<svg width="160px" height="160px" viewBox="0 0 160 160" version="1.1" xmlns="http://www.w3.org/2000/svg" xmlns:xlink="http://www.w3.org/1999/xlink">
    <title>BrightScript</title>
    <g id="Symbols" stroke="none" stroke-width="1" fill="none" fill-rule="evenodd">
        <g id="Logo-Plus">
            <g id="Group">
                <path d="M118,110 C112.666667,110 110,112.666667 110,118 L110,139.488918 C110,146.621068 109.257395,149.207358 107.862938,151.814766 C106.468482,154.422173 104.422173,156.468482 101.814766,157.862938 C99.2073582,159.257395 96.6210683,160 89.4889184,160 L70.5110816,160 C63.3789317,160 60.7926418,159.257395 58.1852344,157.862938 C55.577827,156.468482 53.5315184,154.422173 52.1370616,151.814766 C50.7426049,149.207358 50,146.621068 50,139.488918 L50,118 C50,112.666667 47.3333333,110 42,110 L20.5110816,110 C13.3789317,110 10.7926418,109.257395 8.18523437,107.862938 C5.57782696,106.468482 3.53151837,104.422173 2.13706163,101.814766 C0.742604889,99.2073582 1.30070573e-15,96.6210683 4.27269275e-16,89.4889184 L3.24667112e-15,70.5110816 C2.37323467e-15,63.3789317 0.742604889,60.7926418 2.13706163,58.1852344 C3.53151837,55.577827 5.57782696,53.5315184 8.18523437,52.1370616 C10.7926418,50.7426049 13.3789317,50 20.5110816,50 L42,50 C47.3333333,50 50,47.3333333 50,42 L50,20.5110816 C50,13.3789317 50.7426049,10.7926418 52.1370616,8.18523437 C53.5315184,5.57782696 55.577827,3.53151837 58.1852344,2.13706163 C60.7926418,0.742604889 63.3789317,4.81482439e-16 70.5110816,-8.28672246e-16 L89.4889184,8.28672246e-16 C96.6210683,-4.81482439e-16 99.2073582,0.742604889 101.814766,2.13706163 C104.422173,3.53151837 106.468482,5.57782696 107.862938,8.18523437 C109.257395,10.7926418 110,13.3789317 110,20.5110816 L110,42 C110,47.3333333 112.666667,50 118,50 L139.488918,50 C146.621068,50 149.207358,50.7426049 151.814766,52.1370616 C154.422173,53.5315184 156.468482,55.577827 157.862938,58.1852344 C159.257395,60.7926418 160,63.3789317 160,70.5110816 L160,89.4889184 C160,96.6210683 159.257395,99.2073582 157.862938,101.814766 C156.468482,104.422173 154.422173,106.468482 151.814766,107.862938 C149.207358,109.257395 146.621068,110 139.488918,110 L118,110 Z" id="Combined-Shape" fill="#65318F" fill-rule="nonzero"></path>
            </g>
        </g>
    </g>
</svg>